<svg width="54" height="54" viewBox="0 0 54 54" fill="none" xmlns="http://www.w3.org/2000/svg">
<g clip-path="url(#clip0_13_348)">
<path d="M25.5448 0V8.56904H28.4554V0H25.5445H25.5448ZM13.6599 2.57512L11.2752 4.24476L16.1894 11.2623L18.5727 9.59265L13.6599 2.57512ZM40.3397 2.57512L35.427 9.5927L37.8107 11.2624L42.7248 4.24476L40.3401 2.57512H40.3397ZM26.9995 10.9136C19.8793 10.9136 14.1073 15.2373 14.1073 20.5717L21.432 42.7544H32.5682L39.8923 20.5717C39.8923 15.2374 34.1207 10.9136 27.0002 10.9136H26.9995ZM3.8459 13.4853L2.85144 16.2219L10.8996 19.152L11.8978 16.4167L3.84572 13.4853H3.8459ZM50.1537 13.4853L42.1016 16.4169L43.0963 19.1526L51.1485 16.222L50.1537 13.4853ZM11.509 25.9956L3.23349 28.2153L3.98436 31.0247L12.2599 28.8082L11.5091 25.9956H11.509ZM42.4906 25.9956L41.7403 28.8082L50.0158 31.0243L50.7661 28.2149L42.4906 25.9956V25.9956ZM21.2697 44.3714V48.2273H32.7306V44.372H21.2697L21.2697 44.3714ZM21.2697 50.1441V54H32.7306V50.1448H21.2697L21.2697 50.1441Z" fill="#FBAB18"/>
</g>
<defs>
<clipPath id="clip0_13_348">
<rect width="54" height="54" fill="white"/>
</clipPath>
</defs>
</svg>
