<svg width="54" height="54" viewBox="0 0 54 54" fill="none" xmlns="http://www.w3.org/2000/svg">
<g clip-path="url(#clip0_13_352)">
<path fill-rule="evenodd" clip-rule="evenodd" d="M32.0625 5.625C32.0625 5.47582 32.0032 5.33274 31.8977 5.22725C31.7923 5.12176 31.6492 5.0625 31.5 5.0625H15.75C14.109 5.0625 12.5352 5.7144 11.3748 6.87478C10.2144 8.03516 9.5625 9.60897 9.5625 11.25V42.75C9.5625 44.391 10.2144 45.9648 11.3748 47.1252C12.5352 48.2856 14.109 48.9375 15.75 48.9375H38.25C39.891 48.9375 41.4648 48.2856 42.6252 47.1252C43.7856 45.9648 44.4375 44.391 44.4375 42.75V20.5808C44.4375 20.4316 44.3782 20.2885 44.2727 20.183C44.1673 20.0775 44.0242 20.0183 43.875 20.0183H33.75C33.3024 20.0183 32.8732 19.8405 32.5568 19.524C32.2403 19.2075 32.0625 18.7783 32.0625 18.3308V5.625ZM33.75 27.5625C34.1975 27.5625 34.6268 27.7403 34.9432 28.0568C35.2597 28.3732 35.4375 28.8024 35.4375 29.25C35.4375 29.6976 35.2597 30.1268 34.9432 30.4432C34.6268 30.7597 34.1975 30.9375 33.75 30.9375H20.25C19.8024 30.9375 19.3732 30.7597 19.0568 30.4432C18.7403 30.1268 18.5625 29.6976 18.5625 29.25C18.5625 28.8024 18.7403 28.3732 19.0568 28.0568C19.3732 27.7403 19.8024 27.5625 20.25 27.5625H33.75ZM33.75 36.5625C34.1975 36.5625 34.6268 36.7403 34.9432 37.0568C35.2597 37.3732 35.4375 37.8024 35.4375 38.25C35.4375 38.6976 35.2597 39.1268 34.9432 39.4432C34.6268 39.7597 34.1975 39.9375 33.75 39.9375H20.25C19.8024 39.9375 19.3732 39.7597 19.0568 39.4432C18.7403 39.1268 18.5625 38.6976 18.5625 38.25C18.5625 37.8024 18.7403 37.3732 19.0568 37.0568C19.3732 36.7403 19.8024 36.5625 20.25 36.5625H33.75Z" fill="#FBAB18"/>
<path d="M35.4375 6.35402C35.4375 5.94002 35.8718 5.67677 36.1935 5.93552C36.4658 6.15602 36.711 6.41252 36.9203 6.70502L43.6995 16.1483C43.8525 16.3643 43.686 16.6433 43.4205 16.6433H36C35.8508 16.6433 35.7077 16.584 35.6023 16.4785C35.4968 16.373 35.4375 16.23 35.4375 16.0808V6.35402Z" fill="#FBAB18"/>
</g>
<defs>
<clipPath id="clip0_13_352">
<rect width="54" height="54" fill="white"/>
</clipPath>
</defs>
</svg>
