<svg width="54" height="54" viewBox="0 0 54 54" fill="none" xmlns="http://www.w3.org/2000/svg">
<g clip-path="url(#clip0_13_357)">
<path d="M34.875 30.375C34.875 34.875 29.25 38.25 29.25 41.625H24.75C24.75 38.25 19.125 34.875 19.125 30.375C19.125 26.0325 22.6575 22.5 27 22.5C31.3425 22.5 34.875 26.0325 34.875 30.375ZM29.25 43.875H24.75V45C24.75 46.2375 25.7625 47.25 27 47.25C28.2375 47.25 29.25 46.2375 29.25 45V43.875ZM42.75 29.25C42.75 32.3775 41.8275 35.3025 40.23 37.755C39.9584 38.1868 39.8417 38.6982 39.8989 39.2051C39.9562 39.7121 40.184 40.1845 40.545 40.545C41.535 41.535 43.245 41.4 44.01 40.2075C46.1313 36.9472 47.2571 33.1396 47.25 29.25C47.25 23.94 45.2025 19.1025 41.85 15.48C40.9725 14.535 39.4875 14.5125 38.5875 15.4125C37.7325 16.2675 37.7325 17.64 38.5425 18.54C41.2514 21.4479 42.7552 25.2758 42.75 29.25ZM35.2125 10.4625L28.935 4.18497C28.7785 4.02421 28.5776 3.9138 28.358 3.86787C28.1384 3.82194 27.9101 3.84258 27.7023 3.92715C27.4945 4.01172 27.3167 4.15637 27.1916 4.34259C27.0665 4.5288 26.9998 4.74812 27 4.97247V8.99997C23.3608 9.00082 19.7891 9.98237 16.6605 11.8414C13.532 13.7004 10.9622 16.3681 9.2215 19.564C7.4808 22.7599 6.63351 26.3658 6.76875 30.0025C6.90398 33.6392 8.01675 37.1722 9.99 40.23C10.755 41.4225 12.465 41.5575 13.455 40.5675C14.1975 39.825 14.3325 38.6775 13.77 37.8C10.6425 32.9625 10.08 26.325 14.0625 19.8C16.7625 15.4125 21.8475 13.0725 27 13.5V17.5275C27 18.54 28.215 19.035 28.9125 18.315L35.19 12.0375C35.64 11.61 35.64 10.89 35.2125 10.4625Z" fill="#FBAB18"/>
</g>
<defs>
<clipPath id="clip0_13_357">
<rect width="54" height="54" fill="white"/>
</clipPath>
</defs>
</svg>
