<svg width="55" height="56" viewBox="0 0 55 56" fill="none" xmlns="http://www.w3.org/2000/svg">
<g clip-path="url(#clip0_13_361)">
<path fill-rule="evenodd" clip-rule="evenodd" d="M25.7204 40.8189L14.6811 29.7797C15.895 27.7486 17.105 25.6468 18.3032 23.5568C22.2946 16.6189 26.1918 9.84608 29.8454 6.32216C39.7611 -3.59356 53.3421 2.15787 53.3421 2.15787C53.3421 2.15787 59.0896 15.7389 49.1779 25.6547C45.6814 29.2768 39.0146 33.1189 32.1279 37.0789C29.9829 38.3164 27.8182 39.5618 25.7204 40.8189ZM34.1275 15.1575C34.1275 13.5092 34.7823 11.9284 35.9478 10.7628C37.1134 9.59731 38.6942 8.94251 40.3425 8.94251C41.9908 8.94251 43.5716 9.59731 44.7372 10.7628C45.9027 11.9284 46.5575 13.5092 46.5575 15.1575C46.5167 16.7783 45.8443 18.3189 44.6835 19.4508C43.5228 20.5827 41.9657 21.2163 40.3445 21.2163C38.7232 21.2163 37.1661 20.5827 36.0054 19.4508C34.8447 18.3189 34.1683 16.7783 34.1275 15.1575ZM18.0596 14.2461C12.4889 12.765 7.26 15.5072 2.62036 19.7618C2.4064 19.9634 2.24252 20.2121 2.14181 20.4883C2.0411 20.7644 2.00634 21.0603 2.04031 21.3523C2.07427 21.6443 2.17603 21.9243 2.33745 22.1699C2.49887 22.4156 2.71548 22.6201 2.97 22.7672L10.4539 27.2772L10.4618 27.2614C11.5421 25.4543 12.7482 23.3604 13.9739 21.2389C15.3686 18.815 16.7868 16.3557 18.0596 14.2461ZM28.2229 45.0461L32.7329 52.53C32.8803 52.7843 33.085 53.0005 33.3309 53.1616C33.5767 53.3226 33.8568 53.424 34.1487 53.4576C34.4407 53.4911 34.7364 53.456 35.0124 53.355C35.2884 53.254 35.5369 53.0899 35.7382 52.8757C39.9929 48.24 42.7389 43.0072 41.2539 37.4364C39.2032 38.67 37.0504 39.9114 34.9171 41.1411L34.5911 41.3297C32.4382 42.5711 30.305 43.7968 28.2425 45.0343L28.2229 45.0461ZM10.3007 37.2047C11.8885 37.1765 13.4476 37.6302 14.7724 38.5058C16.0972 39.3815 17.1256 40.6381 17.722 42.1099C18.3184 43.5817 18.4548 45.1997 18.1132 46.7506C17.7716 48.3014 16.9681 49.7124 15.8086 50.7975C14.9364 51.6304 13.5732 52.2825 12.3121 52.7854C10.8987 53.3335 9.45601 53.803 7.99071 54.1918C6.54893 54.5847 5.17393 54.8989 4.13286 55.1072C3.69515 55.1969 3.25497 55.2742 2.81286 55.3389C2.63909 55.3599 2.46488 55.3769 2.29036 55.39C2.02796 55.4097 1.76418 55.3804 1.5125 55.3036C1.14464 55.1944 0.815969 54.9816 0.565714 54.6907C0.353042 54.4424 0.204645 54.1456 0.133571 53.8264C0.0805513 53.6 0.06463 53.3665 0.0864285 53.135C0.0982142 52.9779 0.121786 52.7972 0.145357 52.6322C0.196429 52.2864 0.275 51.8347 0.381071 51.32C0.589286 50.2829 0.911429 48.9157 1.30429 47.4818C1.69714 46.0518 2.17643 44.5197 2.71464 43.18C3.2175 41.9189 3.86964 40.5597 4.7025 39.6914C5.42156 38.9232 6.28762 38.3072 7.24928 37.88C8.21094 37.4528 9.24861 37.2232 10.3007 37.2047Z" fill="#FBAB18"/>
</g>
<defs>
<clipPath id="clip0_13_361">
<rect width="55" height="55" fill="white" transform="translate(0 0.5)"/>
</clipPath>
</defs>
</svg>
